%TF.GenerationSoftware,KiCad,Pcbnew,9.0.7*%
%TF.CreationDate,2026-03-02T03:06:34+00:00*%
%TF.ProjectId,Main Board,4d61696e-2042-46f6-9172-642e6b696361,rev?*%
%TF.SameCoordinates,Original*%
%TF.FileFunction,Soldermask,Bot*%
%TF.FilePolarity,Negative*%
%FSLAX46Y46*%
G04 Gerber Fmt 4.6, Leading zero omitted, Abs format (unit mm)*
G04 Created by KiCad (PCBNEW 9.0.7) date 2026-03-02 03:06:34*
%MOMM*%
%LPD*%
G01*
G04 APERTURE LIST*
G04 Aperture macros list*
%AMRoundRect*
0 Rectangle with rounded corners*
0 $1 Rounding radius*
0 $2 $3 $4 $5 $6 $7 $8 $9 X,Y pos of 4 corners*
0 Add a 4 corners polygon primitive as box body*
4,1,4,$2,$3,$4,$5,$6,$7,$8,$9,$2,$3,0*
0 Add four circle primitives for the rounded corners*
1,1,$1+$1,$2,$3*
1,1,$1+$1,$4,$5*
1,1,$1+$1,$6,$7*
1,1,$1+$1,$8,$9*
0 Add four rect primitives between the rounded corners*
20,1,$1+$1,$2,$3,$4,$5,0*
20,1,$1+$1,$4,$5,$6,$7,0*
20,1,$1+$1,$6,$7,$8,$9,0*
20,1,$1+$1,$8,$9,$2,$3,0*%
G04 Aperture macros list end*
%ADD10C,3.200000*%
%ADD11R,1.700000X1.700000*%
%ADD12C,1.700000*%
%ADD13R,3.500000X3.500000*%
%ADD14C,4.000000*%
%ADD15C,0.650000*%
%ADD16C,2.000000*%
%ADD17RoundRect,0.250001X0.949999X0.949999X-0.949999X0.949999X-0.949999X-0.949999X0.949999X-0.949999X0*%
%ADD18C,2.400000*%
%ADD19C,3.500000*%
%ADD20R,1.905000X2.000000*%
%ADD21O,1.905000X2.000000*%
%ADD22R,2.000000X1.905000*%
%ADD23O,2.000000X1.905000*%
G04 APERTURE END LIST*
D10*
%TO.C,H2*%
X49530000Y-31750000D03*
%TD*%
D11*
%TO.C,J8*%
X146272001Y-36957000D03*
D12*
X143732001Y-36957000D03*
X141192001Y-36957000D03*
%TD*%
D13*
%TO.C,J2*%
X131775200Y-152400000D03*
D14*
X136800200Y-157425000D03*
X136800200Y-147375000D03*
X126750200Y-157425000D03*
X126750200Y-147375000D03*
%TD*%
D13*
%TO.C,J1*%
X154000200Y-152400000D03*
D14*
X159025200Y-157425000D03*
X159025200Y-147375000D03*
X148975200Y-157425000D03*
X148975200Y-147375000D03*
%TD*%
D13*
%TO.C,J3*%
X109550200Y-152400000D03*
D14*
X114575200Y-157425000D03*
X114575200Y-147375000D03*
X104525200Y-157425000D03*
X104525200Y-147375000D03*
%TD*%
D11*
%TO.C,J7*%
X193184000Y-59326000D03*
D12*
X193184000Y-61866000D03*
X193184000Y-64406000D03*
X193184000Y-66946000D03*
X193184000Y-69486000D03*
%TD*%
D10*
%TO.C,H3*%
X49530000Y-156210000D03*
%TD*%
%TO.C,H4*%
X191770000Y-156210000D03*
%TD*%
D11*
%TO.C,J5*%
X168413002Y-155916813D03*
%TD*%
D15*
%TO.C,J6*%
X183466656Y-34275187D03*
X177686656Y-34275187D03*
%TD*%
D16*
%TO.C,SW1*%
X123104671Y-56554295D03*
X129604671Y-56554295D03*
X123104671Y-61054295D03*
X129604671Y-61054295D03*
%TD*%
D10*
%TO.C,H1*%
X191770000Y-31750000D03*
%TD*%
D13*
%TO.C,J4*%
X87325200Y-152400000D03*
D14*
X92350200Y-157425000D03*
X92350200Y-147375000D03*
X82300200Y-157425000D03*
X82300200Y-147375000D03*
%TD*%
D17*
%TO.C,J9*%
X147393690Y-31188214D03*
D18*
X143893690Y-31188214D03*
X140393691Y-31188214D03*
%TD*%
D19*
%TO.C,Q3*%
X171196000Y-117546691D03*
D20*
X168656000Y-134206691D03*
D21*
X171196000Y-134206691D03*
X173736000Y-134206691D03*
%TD*%
D19*
%TO.C,Q6*%
X51920000Y-76200000D03*
D22*
X68580000Y-78740000D03*
D23*
X68580000Y-76200000D03*
X68580000Y-73660001D03*
%TD*%
D19*
%TO.C,Q5*%
X113180000Y-101600000D03*
D22*
X96520000Y-99060000D03*
D23*
X96520000Y-101600000D03*
X96520000Y-104140000D03*
%TD*%
D19*
%TO.C,Q7*%
X51920000Y-88918000D03*
D22*
X68580000Y-91458000D03*
D23*
X68580000Y-88918000D03*
X68580000Y-86378000D03*
%TD*%
D19*
%TO.C,Q4*%
X113180000Y-114300000D03*
D22*
X96520000Y-111760000D03*
D23*
X96520000Y-114300000D03*
X96520000Y-116840000D03*
%TD*%
D19*
%TO.C,Q2*%
X183409259Y-117544831D03*
D20*
X180869259Y-134204831D03*
D21*
X183409259Y-134204831D03*
X185949258Y-134204831D03*
%TD*%
M02*
