%TF.GenerationSoftware,KiCad,Pcbnew,9.0.7*%
%TF.CreationDate,2026-03-02T03:06:33+00:00*%
%TF.ProjectId,Main Board,4d61696e-2042-46f6-9172-642e6b696361,rev?*%
%TF.SameCoordinates,Original*%
%TF.FileFunction,Legend,Bot*%
%TF.FilePolarity,Positive*%
%FSLAX46Y46*%
G04 Gerber Fmt 4.6, Leading zero omitted, Abs format (unit mm)*
G04 Created by KiCad (PCBNEW 9.0.7) date 2026-03-02 03:06:33*
%MOMM*%
%LPD*%
G01*
G04 APERTURE LIST*
%ADD10C,0.150000*%
%ADD11C,0.120000*%
G04 APERTURE END LIST*
D10*
X171291238Y-136706748D02*
X171386476Y-136659129D01*
X171386476Y-136659129D02*
X171481714Y-136563891D01*
X171481714Y-136563891D02*
X171624571Y-136421033D01*
X171624571Y-136421033D02*
X171719809Y-136373414D01*
X171719809Y-136373414D02*
X171815047Y-136373414D01*
X171767428Y-136611510D02*
X171862666Y-136563891D01*
X171862666Y-136563891D02*
X171957904Y-136468652D01*
X171957904Y-136468652D02*
X172005523Y-136278176D01*
X172005523Y-136278176D02*
X172005523Y-135944843D01*
X172005523Y-135944843D02*
X171957904Y-135754367D01*
X171957904Y-135754367D02*
X171862666Y-135659129D01*
X171862666Y-135659129D02*
X171767428Y-135611510D01*
X171767428Y-135611510D02*
X171576952Y-135611510D01*
X171576952Y-135611510D02*
X171481714Y-135659129D01*
X171481714Y-135659129D02*
X171386476Y-135754367D01*
X171386476Y-135754367D02*
X171338857Y-135944843D01*
X171338857Y-135944843D02*
X171338857Y-136278176D01*
X171338857Y-136278176D02*
X171386476Y-136468652D01*
X171386476Y-136468652D02*
X171481714Y-136563891D01*
X171481714Y-136563891D02*
X171576952Y-136611510D01*
X171576952Y-136611510D02*
X171767428Y-136611510D01*
X171005523Y-135611510D02*
X170386476Y-135611510D01*
X170386476Y-135611510D02*
X170719809Y-135992462D01*
X170719809Y-135992462D02*
X170576952Y-135992462D01*
X170576952Y-135992462D02*
X170481714Y-136040081D01*
X170481714Y-136040081D02*
X170434095Y-136087700D01*
X170434095Y-136087700D02*
X170386476Y-136182938D01*
X170386476Y-136182938D02*
X170386476Y-136421033D01*
X170386476Y-136421033D02*
X170434095Y-136516271D01*
X170434095Y-136516271D02*
X170481714Y-136563891D01*
X170481714Y-136563891D02*
X170576952Y-136611510D01*
X170576952Y-136611510D02*
X170862666Y-136611510D01*
X170862666Y-136611510D02*
X170957904Y-136563891D01*
X170957904Y-136563891D02*
X171005523Y-136516271D01*
X71080057Y-76104761D02*
X71032438Y-76009523D01*
X71032438Y-76009523D02*
X70937200Y-75914285D01*
X70937200Y-75914285D02*
X70794342Y-75771428D01*
X70794342Y-75771428D02*
X70746723Y-75676190D01*
X70746723Y-75676190D02*
X70746723Y-75580952D01*
X70984819Y-75628571D02*
X70937200Y-75533333D01*
X70937200Y-75533333D02*
X70841961Y-75438095D01*
X70841961Y-75438095D02*
X70651485Y-75390476D01*
X70651485Y-75390476D02*
X70318152Y-75390476D01*
X70318152Y-75390476D02*
X70127676Y-75438095D01*
X70127676Y-75438095D02*
X70032438Y-75533333D01*
X70032438Y-75533333D02*
X69984819Y-75628571D01*
X69984819Y-75628571D02*
X69984819Y-75819047D01*
X69984819Y-75819047D02*
X70032438Y-75914285D01*
X70032438Y-75914285D02*
X70127676Y-76009523D01*
X70127676Y-76009523D02*
X70318152Y-76057142D01*
X70318152Y-76057142D02*
X70651485Y-76057142D01*
X70651485Y-76057142D02*
X70841961Y-76009523D01*
X70841961Y-76009523D02*
X70937200Y-75914285D01*
X70937200Y-75914285D02*
X70984819Y-75819047D01*
X70984819Y-75819047D02*
X70984819Y-75628571D01*
X69984819Y-76914285D02*
X69984819Y-76723809D01*
X69984819Y-76723809D02*
X70032438Y-76628571D01*
X70032438Y-76628571D02*
X70080057Y-76580952D01*
X70080057Y-76580952D02*
X70222914Y-76485714D01*
X70222914Y-76485714D02*
X70413390Y-76438095D01*
X70413390Y-76438095D02*
X70794342Y-76438095D01*
X70794342Y-76438095D02*
X70889580Y-76485714D01*
X70889580Y-76485714D02*
X70937200Y-76533333D01*
X70937200Y-76533333D02*
X70984819Y-76628571D01*
X70984819Y-76628571D02*
X70984819Y-76819047D01*
X70984819Y-76819047D02*
X70937200Y-76914285D01*
X70937200Y-76914285D02*
X70889580Y-76961904D01*
X70889580Y-76961904D02*
X70794342Y-77009523D01*
X70794342Y-77009523D02*
X70556247Y-77009523D01*
X70556247Y-77009523D02*
X70461009Y-76961904D01*
X70461009Y-76961904D02*
X70413390Y-76914285D01*
X70413390Y-76914285D02*
X70365771Y-76819047D01*
X70365771Y-76819047D02*
X70365771Y-76628571D01*
X70365771Y-76628571D02*
X70413390Y-76533333D01*
X70413390Y-76533333D02*
X70461009Y-76485714D01*
X70461009Y-76485714D02*
X70556247Y-76438095D01*
X95120057Y-101504761D02*
X95072438Y-101409523D01*
X95072438Y-101409523D02*
X94977200Y-101314285D01*
X94977200Y-101314285D02*
X94834342Y-101171428D01*
X94834342Y-101171428D02*
X94786723Y-101076190D01*
X94786723Y-101076190D02*
X94786723Y-100980952D01*
X95024819Y-101028571D02*
X94977200Y-100933333D01*
X94977200Y-100933333D02*
X94881961Y-100838095D01*
X94881961Y-100838095D02*
X94691485Y-100790476D01*
X94691485Y-100790476D02*
X94358152Y-100790476D01*
X94358152Y-100790476D02*
X94167676Y-100838095D01*
X94167676Y-100838095D02*
X94072438Y-100933333D01*
X94072438Y-100933333D02*
X94024819Y-101028571D01*
X94024819Y-101028571D02*
X94024819Y-101219047D01*
X94024819Y-101219047D02*
X94072438Y-101314285D01*
X94072438Y-101314285D02*
X94167676Y-101409523D01*
X94167676Y-101409523D02*
X94358152Y-101457142D01*
X94358152Y-101457142D02*
X94691485Y-101457142D01*
X94691485Y-101457142D02*
X94881961Y-101409523D01*
X94881961Y-101409523D02*
X94977200Y-101314285D01*
X94977200Y-101314285D02*
X95024819Y-101219047D01*
X95024819Y-101219047D02*
X95024819Y-101028571D01*
X94024819Y-102361904D02*
X94024819Y-101885714D01*
X94024819Y-101885714D02*
X94501009Y-101838095D01*
X94501009Y-101838095D02*
X94453390Y-101885714D01*
X94453390Y-101885714D02*
X94405771Y-101980952D01*
X94405771Y-101980952D02*
X94405771Y-102219047D01*
X94405771Y-102219047D02*
X94453390Y-102314285D01*
X94453390Y-102314285D02*
X94501009Y-102361904D01*
X94501009Y-102361904D02*
X94596247Y-102409523D01*
X94596247Y-102409523D02*
X94834342Y-102409523D01*
X94834342Y-102409523D02*
X94929580Y-102361904D01*
X94929580Y-102361904D02*
X94977200Y-102314285D01*
X94977200Y-102314285D02*
X95024819Y-102219047D01*
X95024819Y-102219047D02*
X95024819Y-101980952D01*
X95024819Y-101980952D02*
X94977200Y-101885714D01*
X94977200Y-101885714D02*
X94929580Y-101838095D01*
X71080057Y-88822761D02*
X71032438Y-88727523D01*
X71032438Y-88727523D02*
X70937200Y-88632285D01*
X70937200Y-88632285D02*
X70794342Y-88489428D01*
X70794342Y-88489428D02*
X70746723Y-88394190D01*
X70746723Y-88394190D02*
X70746723Y-88298952D01*
X70984819Y-88346571D02*
X70937200Y-88251333D01*
X70937200Y-88251333D02*
X70841961Y-88156095D01*
X70841961Y-88156095D02*
X70651485Y-88108476D01*
X70651485Y-88108476D02*
X70318152Y-88108476D01*
X70318152Y-88108476D02*
X70127676Y-88156095D01*
X70127676Y-88156095D02*
X70032438Y-88251333D01*
X70032438Y-88251333D02*
X69984819Y-88346571D01*
X69984819Y-88346571D02*
X69984819Y-88537047D01*
X69984819Y-88537047D02*
X70032438Y-88632285D01*
X70032438Y-88632285D02*
X70127676Y-88727523D01*
X70127676Y-88727523D02*
X70318152Y-88775142D01*
X70318152Y-88775142D02*
X70651485Y-88775142D01*
X70651485Y-88775142D02*
X70841961Y-88727523D01*
X70841961Y-88727523D02*
X70937200Y-88632285D01*
X70937200Y-88632285D02*
X70984819Y-88537047D01*
X70984819Y-88537047D02*
X70984819Y-88346571D01*
X69984819Y-89108476D02*
X69984819Y-89775142D01*
X69984819Y-89775142D02*
X70984819Y-89346571D01*
X95120057Y-114204761D02*
X95072438Y-114109523D01*
X95072438Y-114109523D02*
X94977200Y-114014285D01*
X94977200Y-114014285D02*
X94834342Y-113871428D01*
X94834342Y-113871428D02*
X94786723Y-113776190D01*
X94786723Y-113776190D02*
X94786723Y-113680952D01*
X95024819Y-113728571D02*
X94977200Y-113633333D01*
X94977200Y-113633333D02*
X94881961Y-113538095D01*
X94881961Y-113538095D02*
X94691485Y-113490476D01*
X94691485Y-113490476D02*
X94358152Y-113490476D01*
X94358152Y-113490476D02*
X94167676Y-113538095D01*
X94167676Y-113538095D02*
X94072438Y-113633333D01*
X94072438Y-113633333D02*
X94024819Y-113728571D01*
X94024819Y-113728571D02*
X94024819Y-113919047D01*
X94024819Y-113919047D02*
X94072438Y-114014285D01*
X94072438Y-114014285D02*
X94167676Y-114109523D01*
X94167676Y-114109523D02*
X94358152Y-114157142D01*
X94358152Y-114157142D02*
X94691485Y-114157142D01*
X94691485Y-114157142D02*
X94881961Y-114109523D01*
X94881961Y-114109523D02*
X94977200Y-114014285D01*
X94977200Y-114014285D02*
X95024819Y-113919047D01*
X95024819Y-113919047D02*
X95024819Y-113728571D01*
X94358152Y-115014285D02*
X95024819Y-115014285D01*
X93977200Y-114776190D02*
X94691485Y-114538095D01*
X94691485Y-114538095D02*
X94691485Y-115157142D01*
X183504497Y-136704888D02*
X183599735Y-136657269D01*
X183599735Y-136657269D02*
X183694973Y-136562031D01*
X183694973Y-136562031D02*
X183837830Y-136419173D01*
X183837830Y-136419173D02*
X183933068Y-136371554D01*
X183933068Y-136371554D02*
X184028306Y-136371554D01*
X183980687Y-136609650D02*
X184075925Y-136562031D01*
X184075925Y-136562031D02*
X184171163Y-136466792D01*
X184171163Y-136466792D02*
X184218782Y-136276316D01*
X184218782Y-136276316D02*
X184218782Y-135942983D01*
X184218782Y-135942983D02*
X184171163Y-135752507D01*
X184171163Y-135752507D02*
X184075925Y-135657269D01*
X184075925Y-135657269D02*
X183980687Y-135609650D01*
X183980687Y-135609650D02*
X183790211Y-135609650D01*
X183790211Y-135609650D02*
X183694973Y-135657269D01*
X183694973Y-135657269D02*
X183599735Y-135752507D01*
X183599735Y-135752507D02*
X183552116Y-135942983D01*
X183552116Y-135942983D02*
X183552116Y-136276316D01*
X183552116Y-136276316D02*
X183599735Y-136466792D01*
X183599735Y-136466792D02*
X183694973Y-136562031D01*
X183694973Y-136562031D02*
X183790211Y-136609650D01*
X183790211Y-136609650D02*
X183980687Y-136609650D01*
X183171163Y-135704888D02*
X183123544Y-135657269D01*
X183123544Y-135657269D02*
X183028306Y-135609650D01*
X183028306Y-135609650D02*
X182790211Y-135609650D01*
X182790211Y-135609650D02*
X182694973Y-135657269D01*
X182694973Y-135657269D02*
X182647354Y-135704888D01*
X182647354Y-135704888D02*
X182599735Y-135800126D01*
X182599735Y-135800126D02*
X182599735Y-135895364D01*
X182599735Y-135895364D02*
X182647354Y-136038221D01*
X182647354Y-136038221D02*
X183218782Y-136609650D01*
X183218782Y-136609650D02*
X182599735Y-136609650D01*
D11*
%TO.C,Q3*%
X166086000Y-114636691D02*
X166446000Y-114636691D01*
X166086000Y-115036691D02*
X166086000Y-114676691D01*
X166086000Y-115756691D02*
X166086000Y-115396691D01*
X166086000Y-116476691D02*
X166086000Y-116116691D01*
X166086000Y-117196691D02*
X166086000Y-116836691D01*
X166086000Y-117916691D02*
X166086000Y-117556691D01*
X166086000Y-118636691D02*
X166086000Y-118276691D01*
X166086000Y-119356691D02*
X166086000Y-118996691D01*
X166086000Y-120076691D02*
X166086000Y-119716691D01*
X166086000Y-120796691D02*
X166086000Y-120436691D01*
X166086000Y-121036691D02*
X176306000Y-121036691D01*
X166086000Y-130506691D02*
X166086000Y-121036691D01*
X166086000Y-130506691D02*
X176306000Y-130506691D01*
X166806000Y-114636691D02*
X167166000Y-114636691D01*
X167526000Y-114636691D02*
X167886000Y-114636691D01*
X168171000Y-130506691D02*
X168171000Y-132946691D01*
X168246000Y-114636691D02*
X168606000Y-114636691D01*
X168966000Y-114636691D02*
X169326000Y-114636691D01*
X169141000Y-130506691D02*
X169141000Y-132946691D01*
X169686000Y-114636691D02*
X170046000Y-114636691D01*
X170406000Y-114636691D02*
X170766000Y-114636691D01*
X170711000Y-130506691D02*
X170711000Y-132946691D01*
X171126000Y-114636691D02*
X171486000Y-114636691D01*
X171681000Y-130506691D02*
X171681000Y-132946691D01*
X171846000Y-114636691D02*
X172206000Y-114636691D01*
X172566000Y-114636691D02*
X172926000Y-114636691D01*
X173251000Y-130506691D02*
X173251000Y-132946691D01*
X173286000Y-114636691D02*
X173646000Y-114636691D01*
X174006000Y-114636691D02*
X174366000Y-114636691D01*
X174221000Y-130506691D02*
X174221000Y-132946691D01*
X174726000Y-114636691D02*
X175086000Y-114636691D01*
X175446000Y-114636691D02*
X175806000Y-114636691D01*
X176166000Y-114636691D02*
X176306000Y-114636691D01*
X176306000Y-115036691D02*
X176306000Y-114676691D01*
X176306000Y-115756691D02*
X176306000Y-115396691D01*
X176306000Y-116476691D02*
X176306000Y-116116691D01*
X176306000Y-117196691D02*
X176306000Y-116836691D01*
X176306000Y-117916691D02*
X176306000Y-117556691D01*
X176306000Y-118636691D02*
X176306000Y-118276691D01*
X176306000Y-119356691D02*
X176306000Y-118996691D01*
X176306000Y-120076691D02*
X176306000Y-119716691D01*
X176306000Y-120796691D02*
X176306000Y-120436691D01*
X176306000Y-130506691D02*
X176306000Y-121036691D01*
%TO.C,Q6*%
X49010000Y-71230000D02*
X49010000Y-71090000D01*
X49010000Y-71950000D02*
X49010000Y-71590000D01*
X49010000Y-72670000D02*
X49010000Y-72310000D01*
X49010000Y-73390000D02*
X49010000Y-73030000D01*
X49010000Y-74110000D02*
X49010000Y-73750000D01*
X49010000Y-74830000D02*
X49010000Y-74470000D01*
X49010000Y-75550000D02*
X49010000Y-75190000D01*
X49010000Y-76270000D02*
X49010000Y-75910000D01*
X49010000Y-76990000D02*
X49010000Y-76630000D01*
X49010000Y-77710000D02*
X49010000Y-77350000D01*
X49010000Y-78430000D02*
X49010000Y-78070000D01*
X49010000Y-79150000D02*
X49010000Y-78790000D01*
X49010000Y-79870000D02*
X49010000Y-79510000D01*
X49010000Y-80590000D02*
X49010000Y-80230000D01*
X49010000Y-81310000D02*
X49010000Y-80950000D01*
X49410000Y-71090000D02*
X49050000Y-71090001D01*
X49410000Y-81309999D02*
X49050000Y-81310000D01*
X50129999Y-81310000D02*
X49770000Y-81310000D01*
X50130000Y-71090000D02*
X49770000Y-71090001D01*
X50850000Y-71090000D02*
X50490000Y-71090000D01*
X50850000Y-81310000D02*
X50490000Y-81310000D01*
X51570000Y-71090000D02*
X51210000Y-71090000D01*
X51570000Y-81310000D02*
X51210000Y-81310000D01*
X52290000Y-71090001D02*
X51930000Y-71090000D01*
X52290000Y-81310000D02*
X51930001Y-81310000D01*
X53010000Y-71090001D02*
X52650000Y-71090000D01*
X53010000Y-81310000D02*
X52650000Y-81309999D01*
X53730000Y-71090000D02*
X53370000Y-71090000D01*
X53730000Y-81310000D02*
X53369999Y-81310000D01*
X54450000Y-71090000D02*
X54090000Y-71090000D01*
X54450000Y-81310000D02*
X54090000Y-81310000D01*
X55170000Y-71090000D02*
X54810000Y-71090001D01*
X55170000Y-81309999D02*
X54810000Y-81310000D01*
X55410000Y-81310000D02*
X55410000Y-71090000D01*
X64879999Y-76685000D02*
X67320000Y-76685000D01*
X64879999Y-81310000D02*
X55410000Y-81310000D01*
X64879999Y-81310000D02*
X64880000Y-71090000D01*
X64880000Y-71090000D02*
X55410000Y-71090000D01*
X64880000Y-73175000D02*
X67320000Y-73175000D01*
X64880000Y-74145000D02*
X67320000Y-74145000D01*
X64880000Y-75715000D02*
X67319999Y-75715000D01*
X64880000Y-78255000D02*
X67320000Y-78255000D01*
X64880000Y-79225000D02*
X67320000Y-79225000D01*
%TO.C,Q5*%
X100220000Y-96490000D02*
X100220000Y-106710000D01*
X100220000Y-96490000D02*
X109690000Y-96490000D01*
X100220000Y-98575000D02*
X97780000Y-98575000D01*
X100220000Y-99545000D02*
X97780000Y-99545000D01*
X100220000Y-101115000D02*
X97780000Y-101115000D01*
X100220000Y-102085000D02*
X97780000Y-102085000D01*
X100220000Y-103655000D02*
X97780000Y-103655000D01*
X100220000Y-104625000D02*
X97780000Y-104625000D01*
X100220000Y-106710000D02*
X109690000Y-106710000D01*
X109690000Y-96490000D02*
X109690000Y-106710000D01*
X109930000Y-96490000D02*
X110290000Y-96490000D01*
X109930000Y-106710000D02*
X110290000Y-106710000D01*
X110650000Y-96490000D02*
X111010000Y-96490000D01*
X110650000Y-106710000D02*
X111010000Y-106710000D01*
X111370000Y-96490000D02*
X111730000Y-96490000D01*
X111370000Y-106710000D02*
X111730000Y-106710000D01*
X112090000Y-96490000D02*
X112450000Y-96490000D01*
X112090000Y-106710000D02*
X112450000Y-106710000D01*
X112810000Y-96490000D02*
X113170000Y-96490000D01*
X112810000Y-106710000D02*
X113170000Y-106710000D01*
X113530000Y-96490000D02*
X113890000Y-96490000D01*
X113530000Y-106710000D02*
X113890000Y-106710000D01*
X114250000Y-96490000D02*
X114610000Y-96490000D01*
X114250000Y-106710000D02*
X114610000Y-106710000D01*
X114970000Y-96490000D02*
X115330000Y-96490000D01*
X114970000Y-106710000D02*
X115330000Y-106710000D01*
X115690000Y-96490000D02*
X116050000Y-96490000D01*
X115690000Y-106710000D02*
X116050000Y-106710000D01*
X116090000Y-96490000D02*
X116090000Y-96850000D01*
X116090000Y-97210000D02*
X116090000Y-97570000D01*
X116090000Y-97930000D02*
X116090000Y-98290000D01*
X116090000Y-98650000D02*
X116090000Y-99010000D01*
X116090000Y-99370000D02*
X116090000Y-99730000D01*
X116090000Y-100090000D02*
X116090000Y-100450000D01*
X116090000Y-100810000D02*
X116090000Y-101170000D01*
X116090000Y-101530000D02*
X116090000Y-101890000D01*
X116090000Y-102250000D02*
X116090000Y-102610000D01*
X116090000Y-102970000D02*
X116090000Y-103330000D01*
X116090000Y-103690000D02*
X116090000Y-104050000D01*
X116090000Y-104410000D02*
X116090000Y-104770000D01*
X116090000Y-105130000D02*
X116090000Y-105490000D01*
X116090000Y-105850000D02*
X116090000Y-106210000D01*
X116090000Y-106570000D02*
X116090000Y-106710000D01*
%TO.C,Q7*%
X49010000Y-83948000D02*
X49010000Y-83808000D01*
X49010000Y-84668000D02*
X49010000Y-84308000D01*
X49010000Y-85388000D02*
X49010000Y-85028000D01*
X49010000Y-86108000D02*
X49010000Y-85748000D01*
X49010000Y-86828000D02*
X49010000Y-86468000D01*
X49010000Y-87548000D02*
X49010000Y-87188000D01*
X49010000Y-88268000D02*
X49010000Y-87908000D01*
X49010000Y-88988000D02*
X49010000Y-88628000D01*
X49010000Y-89708000D02*
X49010000Y-89348000D01*
X49010000Y-90428000D02*
X49010000Y-90068000D01*
X49010000Y-91148000D02*
X49010000Y-90788000D01*
X49010000Y-91868000D02*
X49010000Y-91508000D01*
X49010000Y-92588000D02*
X49010000Y-92228000D01*
X49010000Y-93308000D02*
X49010000Y-92948000D01*
X49010000Y-94028000D02*
X49010000Y-93668000D01*
X49410000Y-83808000D02*
X49050000Y-83808000D01*
X49410000Y-94028000D02*
X49050000Y-94028000D01*
X50130000Y-83808000D02*
X49770000Y-83808000D01*
X50130000Y-94028000D02*
X49770000Y-94028000D01*
X50850000Y-83808000D02*
X50490000Y-83808000D01*
X50850000Y-94028000D02*
X50490000Y-94028000D01*
X51570000Y-83808000D02*
X51210000Y-83808000D01*
X51570000Y-94028000D02*
X51210000Y-94028000D01*
X52290000Y-83808000D02*
X51930000Y-83808000D01*
X52290000Y-94028000D02*
X51930000Y-94028000D01*
X53010000Y-83808000D02*
X52650000Y-83808000D01*
X53010000Y-94028000D02*
X52650000Y-94028000D01*
X53730000Y-83808000D02*
X53370000Y-83808000D01*
X53730000Y-94028000D02*
X53370000Y-94028000D01*
X54450000Y-83808000D02*
X54090000Y-83808000D01*
X54450000Y-94028000D02*
X54090000Y-94028000D01*
X55170000Y-83808000D02*
X54810000Y-83808000D01*
X55170000Y-94028000D02*
X54810000Y-94028000D01*
X55410000Y-94028000D02*
X55410000Y-83808000D01*
X64880000Y-83808000D02*
X55410000Y-83808000D01*
X64880000Y-85893000D02*
X67320000Y-85893000D01*
X64880000Y-86863000D02*
X67320000Y-86863000D01*
X64880000Y-88433000D02*
X67320000Y-88433000D01*
X64880000Y-89403000D02*
X67320000Y-89403000D01*
X64880000Y-90973000D02*
X67320000Y-90973000D01*
X64880000Y-91943000D02*
X67320000Y-91943000D01*
X64880000Y-94028000D02*
X55410000Y-94028000D01*
X64880000Y-94028000D02*
X64880000Y-83808000D01*
%TO.C,Q4*%
X100220000Y-109190000D02*
X100220000Y-119410000D01*
X100220000Y-109190000D02*
X109690000Y-109190000D01*
X100220000Y-111275000D02*
X97780000Y-111275000D01*
X100220000Y-112245000D02*
X97780000Y-112245000D01*
X100220000Y-113815000D02*
X97780000Y-113815000D01*
X100220000Y-114785000D02*
X97780000Y-114785000D01*
X100220000Y-116355000D02*
X97780000Y-116355000D01*
X100220000Y-117325000D02*
X97780000Y-117325000D01*
X100220000Y-119410000D02*
X109690000Y-119410000D01*
X109690000Y-109190000D02*
X109690000Y-119410000D01*
X109930000Y-109190000D02*
X110290000Y-109190000D01*
X109930000Y-119410000D02*
X110290000Y-119410000D01*
X110650000Y-109190000D02*
X111010000Y-109190000D01*
X110650000Y-119410000D02*
X111010000Y-119410000D01*
X111370000Y-109190000D02*
X111730000Y-109190000D01*
X111370000Y-119410000D02*
X111730000Y-119410000D01*
X112090000Y-109190000D02*
X112450000Y-109190000D01*
X112090000Y-119410000D02*
X112450000Y-119410000D01*
X112810000Y-109190000D02*
X113170000Y-109190000D01*
X112810000Y-119410000D02*
X113170000Y-119410000D01*
X113530000Y-109190000D02*
X113890000Y-109190000D01*
X113530000Y-119410000D02*
X113890000Y-119410000D01*
X114250000Y-109190000D02*
X114610000Y-109190000D01*
X114250000Y-119410000D02*
X114610000Y-119410000D01*
X114970000Y-109190000D02*
X115330000Y-109190000D01*
X114970000Y-119410000D02*
X115330000Y-119410000D01*
X115690000Y-109190000D02*
X116050000Y-109190000D01*
X115690000Y-119410000D02*
X116050000Y-119410000D01*
X116090000Y-109190000D02*
X116090000Y-109550000D01*
X116090000Y-109910000D02*
X116090000Y-110270000D01*
X116090000Y-110630000D02*
X116090000Y-110990000D01*
X116090000Y-111350000D02*
X116090000Y-111710000D01*
X116090000Y-112070000D02*
X116090000Y-112430000D01*
X116090000Y-112790000D02*
X116090000Y-113150000D01*
X116090000Y-113510000D02*
X116090000Y-113870000D01*
X116090000Y-114230000D02*
X116090000Y-114590000D01*
X116090000Y-114950000D02*
X116090000Y-115310000D01*
X116090000Y-115670000D02*
X116090000Y-116030000D01*
X116090000Y-116390000D02*
X116090000Y-116750000D01*
X116090000Y-117110000D02*
X116090000Y-117470000D01*
X116090000Y-117830000D02*
X116090000Y-118190000D01*
X116090000Y-118550000D02*
X116090000Y-118910000D01*
X116090000Y-119270000D02*
X116090000Y-119410000D01*
%TO.C,Q2*%
X178299259Y-114634831D02*
X178659259Y-114634831D01*
X178299259Y-115754830D02*
X178299259Y-115394831D01*
X178299259Y-116474831D02*
X178299259Y-116114831D01*
X178299259Y-117194831D02*
X178299259Y-116834831D01*
X178299259Y-117914831D02*
X178299259Y-117554832D01*
X178299259Y-118634831D02*
X178299260Y-118274831D01*
X178299259Y-119354831D02*
X178299259Y-118994830D01*
X178299259Y-120074831D02*
X178299259Y-119714831D01*
X178299259Y-121034831D02*
X188519259Y-121034831D01*
X178299259Y-130504830D02*
X178299259Y-121034831D01*
X178299259Y-130504830D02*
X188519259Y-130504831D01*
X178299260Y-115034831D02*
X178299259Y-114674831D01*
X178299260Y-120794831D02*
X178299259Y-120434831D01*
X179019259Y-114634831D02*
X179379259Y-114634831D01*
X179739259Y-114634831D02*
X180099259Y-114634831D01*
X180384259Y-130504831D02*
X180384259Y-132944831D01*
X180459259Y-114634831D02*
X180819259Y-114634831D01*
X181179259Y-114634831D02*
X181539259Y-114634831D01*
X181354259Y-130504831D02*
X181354259Y-132944831D01*
X181899259Y-114634831D02*
X182259259Y-114634831D01*
X182619259Y-114634831D02*
X182979259Y-114634831D01*
X182924259Y-130504830D02*
X182924259Y-132944831D01*
X183339259Y-114634831D02*
X183699259Y-114634831D01*
X183894259Y-130504831D02*
X183894259Y-132944830D01*
X184059259Y-114634831D02*
X184419259Y-114634831D01*
X184779259Y-114634831D02*
X185139259Y-114634831D01*
X185464259Y-130504831D02*
X185464259Y-132944831D01*
X185499259Y-114634831D02*
X185859259Y-114634831D01*
X186219259Y-114634831D02*
X186579259Y-114634831D01*
X186434259Y-130504831D02*
X186434259Y-132944831D01*
X186939259Y-114634831D02*
X187299259Y-114634831D01*
X187659259Y-114634831D02*
X188019259Y-114634831D01*
X188379259Y-114634831D02*
X188519259Y-114634831D01*
X188519258Y-117914831D02*
X188519259Y-117554831D01*
X188519258Y-118634831D02*
X188519259Y-118274831D01*
X188519259Y-115034831D02*
X188519258Y-114674831D01*
X188519259Y-115754831D02*
X188519258Y-115394831D01*
X188519259Y-116474831D02*
X188519259Y-116114831D01*
X188519259Y-117194831D02*
X188519259Y-116834831D01*
X188519259Y-119354831D02*
X188519259Y-118994831D01*
X188519259Y-120074831D02*
X188519259Y-119714831D01*
X188519259Y-120794831D02*
X188519258Y-120434831D01*
X188519259Y-130504831D02*
X188519259Y-121034831D01*
%TD*%
M02*
