M48
; DRILL file {KiCad 9.0.7} date 2026-03-02T03:06:26+0000
; FORMAT={-:-/ absolute / metric / decimal}
; #@! TF.CreationDate,2026-03-02T03:06:26+00:00
; #@! TF.GenerationSoftware,Kicad,Pcbnew,9.0.7
; #@! TF.FileFunction,Plated,1,2,PTH
FMAT,2
METRIC
; #@! TA.AperFunction,Plated,PTH,ViaDrill
T1C0.300
; #@! TA.AperFunction,Plated,PTH,ComponentDrill
T2C1.000
; #@! TA.AperFunction,Plated,PTH,ComponentDrill
T3C1.100
; #@! TA.AperFunction,Plated,PTH,ComponentDrill
T4C1.200
; #@! TA.AperFunction,Plated,PTH,ComponentDrill
T5C1.500
%
G90
G05
T1
X51.054Y-107.95
X51.943Y-82.55
X52.07Y-107.188
X54.61Y-107.188
X54.864Y-121.92
X54.864Y-124.46
X55.245Y-51.435
X55.372Y-107.95
X56.007Y-104.267
X56.134Y-57.404
X57.658Y-57.404
X59.055Y-33.655
X59.182Y-64.135
X59.309Y-51.435
X61.214Y-145.796
X61.976Y-69.85
X62.23Y-44.45
X62.357Y-52.705
X63.119Y-55.372
X63.119Y-59.182
X63.119Y-92.456
X63.119Y-95.885
X63.246Y-109.982
X63.881Y-55.88
X63.881Y-61.595
X63.881Y-91.694
X63.881Y-95.504
X64.008Y-110.744
X64.135Y-32.385
X64.643Y-48.895
X64.643Y-53.975
X64.77Y-44.45
X65.024Y-69.85
X65.913Y-60.706
X65.913Y-105.029
X66.04Y-30.48
X66.04Y-32.512
X66.675Y-95.25
X67.056Y-110.744
X67.564Y-33.655
X67.564Y-109.982
X67.691Y-65.405
X67.945Y-54.61
X67.945Y-95.377
X68.072Y-34.544
X68.58Y-145.796
X68.58Y-150.622
X68.707Y-33.655
X69.977Y-56.515
X70.104Y-54.102
X70.612Y-92.71
X70.866Y-53.594
X71.501Y-49.276
X73.787Y-84.521
X74.168Y-136.652
X74.549Y-71.12
X74.549Y-76.073
X74.93Y-118.11
X74.93Y-123.19
X74.93Y-129.54
X76.073Y-77.724
X76.2Y-101.219
X76.2Y-103.251
X76.327Y-71.12
X77.089Y-112.141
X78.74Y-84.836
X78.74Y-85.598
X78.74Y-86.36
X82.296Y-114.046
X82.296Y-122.428
X85.09Y-76.835
X85.344Y-38.1
X88.773Y-84.201
X88.773Y-86.487
X88.773Y-90.297
X88.9Y-112.903
X89.408Y-105.156
X89.662Y-59.436
X90.551Y-114.427
X91.567Y-84.201
X91.567Y-86.487
X91.567Y-90.297
X92.837Y-76.835
X93.218Y-59.436
X93.599Y-46.355
X96.774Y-67.31
X97.028Y-86.868
X97.028Y-89.662
X97.028Y-130.81
X97.409Y-76.835
X97.917Y-35.052
X98.171Y-70.612
X98.298Y-114.3
X99.568Y-58.42
X99.568Y-96.52
X99.568Y-99.06
X99.695Y-57.15
X100.33Y-63.5
X100.33Y-71.374
X100.33Y-80.264
X100.33Y-82.042
X100.457Y-74.295
X100.457Y-78.105
X101.219Y-48.387
X101.219Y-90.17
X101.219Y-90.932
X101.219Y-91.694
X101.219Y-118.872
X101.219Y-122.301
X101.981Y-117.856
X101.981Y-121.92
X102.362Y-130.81
X102.743Y-74.295
X102.87Y-69.596
X102.87Y-82.042
X102.997Y-38.1
X102.997Y-93.472
X103.759Y-93.472
X104.521Y-93.472
X105.283Y-72.39
X105.664Y-73.406
X105.791Y-60.833
X105.918Y-58.42
X105.918Y-122.428
X105.918Y-123.19
X105.918Y-123.952
X106.172Y-85.09
X106.553Y-60.833
X110.363Y-77.089
X111.506Y-72.39
X111.76Y-39.624
X111.76Y-45.212
X112.014Y-71.755
X112.014Y-73.025
X113.284Y-74.676
X113.538Y-62.484
X114.3Y-73.66
X115.062Y-62.484
X115.311Y-46.36
X115.316Y-86.995
X115.443Y-34.925
X115.824Y-69.088
X115.824Y-71.12
X115.824Y-72.136
X115.828Y-70.108
X116.84Y-75.692
X117.475Y-55.753
X120.457Y-46.725
X120.904Y-83.82
X121.031Y-38.354
X121.539Y-91.186
X121.539Y-93.98
X121.794Y-63.628
X122.301Y-91.694
X122.301Y-94.615
X123.063Y-91.186
X123.063Y-93.98
X123.698Y-91.694
X123.698Y-94.615
X124.206Y-77.47
X124.333Y-106.045
X124.841Y-105.41
X125.603Y-90.932
X126.238Y-83.82
X126.873Y-69.723
X127.254Y-90.932
X127.254Y-106.045
X127.508Y-48.006
X127.762Y-105.41
X128.143Y-48.006
X128.143Y-102.235
X128.27Y-73.406
X128.778Y-48.006
X128.778Y-63.618
X129.191Y-46.26
X129.413Y-48.006
X130.048Y-48.006
X130.81Y-96.52
X130.937Y-98.425
X130.937Y-103.505
X130.937Y-105.41
X131.699Y-107.061
X131.826Y-90.551
X132.461Y-107.061
X132.588Y-60.706
X133.223Y-35.052
X133.223Y-104.775
X133.223Y-106.045
X133.312Y-96.609
X133.35Y-77.597
X133.477Y-47.998
X133.731Y-95.504
X134.112Y-47.998
X134.366Y-72.39
X134.366Y-73.406
X134.747Y-47.998
X134.874Y-71.628
X135.128Y-92.71
X135.255Y-118.11
X135.382Y-47.998
X136.017Y-47.998
X136.144Y-71.374
X136.652Y-119.634
X136.906Y-71.12
X137.922Y-67.945
X138.176Y-123.952
X138.43Y-73.153
X138.557Y-115.57
X138.684Y-54.61
X138.938Y-67.056
X139.319Y-109.601
X139.319Y-119.126
X139.319Y-122.682
X139.7Y-107.95
X140.081Y-109.601
X140.081Y-118.618
X140.081Y-121.666
X140.084Y-70.236
X140.089Y-69.255
X140.335Y-56.007
X140.553Y-72.227
X140.716Y-58.547
X140.79Y-115.55
X141.732Y-119.634
X141.732Y-122.047
X142.748Y-97.282
X142.748Y-100.584
X143.764Y-54.61
X143.764Y-114.3
X144.145Y-85.09
X144.526Y-93.472
X144.653Y-64.643
X145.034Y-107.95
X145.542Y-85.09
X145.542Y-108.712
X145.55Y-111.752
X145.796Y-96.266
X146.177Y-99.695
X146.177Y-104.775
X146.177Y-106.045
X146.304Y-126.111
X146.812Y-78.994
X147.828Y-71.628
X148.082Y-110.236
X148.463Y-103.505
X148.844Y-71.628
X149.098Y-67.056
X149.86Y-71.628
X149.86Y-73.66
X150.114Y-94.996
X150.876Y-71.628
X150.876Y-73.66
X150.98Y-63.477
X151.13Y-97.028
X151.257Y-106.045
X151.638Y-110.236
X151.638Y-123.952
X151.85Y-98.298
X151.892Y-73.66
X152.908Y-73.66
X153.67Y-105.156
X153.924Y-78.994
X154.051Y-38.227
X154.432Y-106.045
X154.686Y-95.758
X155.194Y-98.298
X155.448Y-96.266
X160.274Y-78.994
X165.354Y-53.721
X165.608Y-77.216
X166.243Y-35.023
X168.402Y-86.487
X168.656Y-132.207
X169.037Y-98.298
X169.037Y-136.017
X169.164Y-107.696
X169.291Y-99.187
X169.291Y-109.474
X169.799Y-72.517
X170.688Y-95.758
X170.688Y-104.14
X171.458Y-97.02
X171.704Y-84.963
X172.085Y-110.617
X172.085Y-128.778
X172.212Y-121.92
X172.339Y-104.013
X172.593Y-79.375
X172.847Y-107.442
X173.228Y-86.614
X173.228Y-96.012
X173.228Y-110.617
X173.228Y-121.92
X173.609Y-79.375
X174.498Y-37.592
X174.879Y-136.017
X175.006Y-100.965
X175.071Y-115.27
X175.26Y-77.978
X176.022Y-70.866
X176.022Y-77.216
X176.149Y-81.407
X176.403Y-91.567
X176.403Y-119.126
X176.464Y-123.19
X177.038Y-56.388
X177.038Y-59.69
X177.546Y-89.027
X177.816Y-122.809
X178.054Y-77.216
X178.562Y-108.077
X178.689Y-91.567
X178.943Y-84.328
X179.578Y-70.866
X179.578Y-77.978
X179.705Y-121.92
X179.885Y-120.795
X179.99Y-115.417
X180.213Y-125.476
X180.467Y-121.92
X180.848Y-53.721
X181.102Y-126.365
X181.483Y-110.617
X181.737Y-99.822
X181.737Y-102.997
X181.864Y-80.264
X181.864Y-132.207
X182.626Y-80.264
X182.88Y-110.617
X182.88Y-152.4
X182.88Y-154.94
X183.388Y-64.77
X184.023Y-114.3
X184.658Y-129.413
X185.42Y-77.978
X185.42Y-81.788
X185.42Y-113.919
X186.436Y-37.465
X186.436Y-154.94
X187.452Y-60.706
X187.452Y-61.976
X188.595Y-106.426
X188.976Y-65.532
X188.976Y-67.564
X189.357Y-111.887
X189.865Y-106.426
X190.5Y-110.744
T2
X141.192Y-36.957
X143.732Y-36.957
X146.272Y-36.957
X168.413Y-155.917
X193.184Y-59.326
X193.184Y-61.866
X193.184Y-64.406
X193.184Y-66.946
X193.184Y-69.486
T3
X68.58Y-73.66
X68.58Y-76.2
X68.58Y-78.74
X68.58Y-86.378
X68.58Y-88.918
X68.58Y-91.458
X87.325Y-152.4
X96.52Y-99.06
X96.52Y-101.6
X96.52Y-104.14
X96.52Y-111.76
X96.52Y-114.3
X96.52Y-116.84
X109.55Y-152.4
X123.105Y-56.554
X123.105Y-61.054
X129.605Y-56.554
X129.605Y-61.054
X131.775Y-152.4
X154.0Y-152.4
X168.656Y-134.207
X171.196Y-134.207
X173.736Y-134.207
X180.869Y-134.205
X183.409Y-134.205
X185.949Y-134.205
T4
X140.394Y-31.188
X143.894Y-31.188
X147.394Y-31.188
T5
X82.3Y-147.375
X82.3Y-157.425
X92.35Y-147.375
X92.35Y-157.425
X104.525Y-147.375
X104.525Y-157.425
X114.575Y-147.375
X114.575Y-157.425
X126.75Y-147.375
X126.75Y-157.425
X136.8Y-147.375
X136.8Y-157.425
X148.975Y-147.375
X148.975Y-157.425
X159.025Y-147.375
X159.025Y-157.425
M30
