%TF.GenerationSoftware,KiCad,Pcbnew,9.0.7*%
%TF.CreationDate,2026-03-02T03:06:32+00:00*%
%TF.ProjectId,Main Board,4d61696e-2042-46f6-9172-642e6b696361,rev?*%
%TF.SameCoordinates,Original*%
%TF.FileFunction,Paste,Top*%
%TF.FilePolarity,Positive*%
%FSLAX46Y46*%
G04 Gerber Fmt 4.6, Leading zero omitted, Abs format (unit mm)*
G04 Created by KiCad (PCBNEW 9.0.7) date 2026-03-02 03:06:32*
%MOMM*%
%LPD*%
G01*
G04 APERTURE LIST*
G04 Aperture macros list*
%AMRoundRect*
0 Rectangle with rounded corners*
0 $1 Rounding radius*
0 $2 $3 $4 $5 $6 $7 $8 $9 X,Y pos of 4 corners*
0 Add a 4 corners polygon primitive as box body*
4,1,4,$2,$3,$4,$5,$6,$7,$8,$9,$2,$3,0*
0 Add four circle primitives for the rounded corners*
1,1,$1+$1,$2,$3*
1,1,$1+$1,$4,$5*
1,1,$1+$1,$6,$7*
1,1,$1+$1,$8,$9*
0 Add four rect primitives between the rounded corners*
20,1,$1+$1,$2,$3,$4,$5,0*
20,1,$1+$1,$4,$5,$6,$7,0*
20,1,$1+$1,$6,$7,$8,$9,0*
20,1,$1+$1,$8,$9,$2,$3,0*%
G04 Aperture macros list end*
%ADD10RoundRect,0.250000X0.250000X0.475000X-0.250000X0.475000X-0.250000X-0.475000X0.250000X-0.475000X0*%
%ADD11RoundRect,0.250000X-0.400000X-0.550000X0.400000X-0.550000X0.400000X0.550000X-0.400000X0.550000X0*%
%ADD12RoundRect,0.250000X-0.750000X-0.550000X0.750000X-0.550000X0.750000X0.550000X-0.750000X0.550000X0*%
%ADD13RoundRect,0.150000X0.587500X0.150000X-0.587500X0.150000X-0.587500X-0.150000X0.587500X-0.150000X0*%
%ADD14RoundRect,0.075000X0.441942X-0.548008X0.548008X-0.441942X-0.441942X0.548008X-0.548008X0.441942X0*%
%ADD15RoundRect,0.075000X-0.441942X-0.548008X0.548008X0.441942X0.441942X0.548008X-0.548008X-0.441942X0*%
%ADD16RoundRect,0.250000X-0.250000X-0.475000X0.250000X-0.475000X0.250000X0.475000X-0.250000X0.475000X0*%
%ADD17RoundRect,0.250000X0.475000X-0.250000X0.475000X0.250000X-0.475000X0.250000X-0.475000X-0.250000X0*%
%ADD18RoundRect,0.250000X-0.262500X-0.450000X0.262500X-0.450000X0.262500X0.450000X-0.262500X0.450000X0*%
%ADD19RoundRect,0.250000X0.262500X0.450000X-0.262500X0.450000X-0.262500X-0.450000X0.262500X-0.450000X0*%
%ADD20R,0.457200X2.133600*%
%ADD21RoundRect,0.250000X-0.325000X-1.100000X0.325000X-1.100000X0.325000X1.100000X-0.325000X1.100000X0*%
%ADD22RoundRect,0.250000X-0.450000X0.262500X-0.450000X-0.262500X0.450000X-0.262500X0.450000X0.262500X0*%
%ADD23RoundRect,0.250000X0.500000X-0.950000X0.500000X0.950000X-0.500000X0.950000X-0.500000X-0.950000X0*%
%ADD24RoundRect,0.250000X0.500000X-0.275000X0.500000X0.275000X-0.500000X0.275000X-0.500000X-0.275000X0*%
%ADD25R,2.133600X0.457200*%
%ADD26RoundRect,0.150000X-0.825000X-0.150000X0.825000X-0.150000X0.825000X0.150000X-0.825000X0.150000X0*%
%ADD27RoundRect,0.250000X-0.475000X0.250000X-0.475000X-0.250000X0.475000X-0.250000X0.475000X0.250000X0*%
%ADD28RoundRect,0.375000X0.375000X-0.625000X0.375000X0.625000X-0.375000X0.625000X-0.375000X-0.625000X0*%
%ADD29RoundRect,0.500000X1.400000X-0.500000X1.400000X0.500000X-1.400000X0.500000X-1.400000X-0.500000X0*%
%ADD30RoundRect,0.243750X0.456250X-0.243750X0.456250X0.243750X-0.456250X0.243750X-0.456250X-0.243750X0*%
%ADD31RoundRect,0.218750X0.381250X-0.218750X0.381250X0.218750X-0.381250X0.218750X-0.381250X-0.218750X0*%
%ADD32RoundRect,0.250000X0.362500X1.425000X-0.362500X1.425000X-0.362500X-1.425000X0.362500X-1.425000X0*%
%ADD33RoundRect,0.150000X0.150000X-0.587500X0.150000X0.587500X-0.150000X0.587500X-0.150000X-0.587500X0*%
%ADD34RoundRect,0.150000X-0.150000X0.512500X-0.150000X-0.512500X0.150000X-0.512500X0.150000X0.512500X0*%
%ADD35RoundRect,0.250000X0.450000X-0.262500X0.450000X0.262500X-0.450000X0.262500X-0.450000X-0.262500X0*%
%ADD36RoundRect,0.250000X-0.500000X0.950000X-0.500000X-0.950000X0.500000X-0.950000X0.500000X0.950000X0*%
%ADD37RoundRect,0.250000X-0.500000X0.275000X-0.500000X-0.275000X0.500000X-0.275000X0.500000X0.275000X0*%
%ADD38RoundRect,0.015000X0.135000X0.275000X-0.135000X0.275000X-0.135000X-0.275000X0.135000X-0.275000X0*%
%ADD39RoundRect,0.250000X-1.425000X0.362500X-1.425000X-0.362500X1.425000X-0.362500X1.425000X0.362500X0*%
%ADD40RoundRect,0.250000X-0.950000X0.750000X-0.950000X-0.750000X0.950000X-0.750000X0.950000X0.750000X0*%
%ADD41RoundRect,0.150000X0.150000X0.425000X-0.150000X0.425000X-0.150000X-0.425000X0.150000X-0.425000X0*%
%ADD42RoundRect,0.075000X0.075000X0.500000X-0.075000X0.500000X-0.075000X-0.500000X0.075000X-0.500000X0*%
%ADD43RoundRect,0.250000X0.840000X0.750000X-0.840000X0.750000X-0.840000X-0.750000X0.840000X-0.750000X0*%
%ADD44RoundRect,0.150000X0.825000X0.150000X-0.825000X0.150000X-0.825000X-0.150000X0.825000X-0.150000X0*%
%ADD45RoundRect,0.150000X-0.587500X-0.150000X0.587500X-0.150000X0.587500X0.150000X-0.587500X0.150000X0*%
G04 APERTURE END LIST*
D10*
%TO.C,C6*%
X139437606Y-73162179D03*
X141337604Y-73162179D03*
%TD*%
D11*
%TO.C,RV4*%
X106668000Y-39291000D03*
D12*
X105418000Y-42191000D03*
D11*
X104168000Y-39291000D03*
%TD*%
%TO.C,RV3*%
X157468000Y-39337000D03*
D12*
X156218000Y-42237000D03*
D11*
X154968000Y-39337000D03*
%TD*%
%TO.C,RV2*%
X88888000Y-39256000D03*
D12*
X87638000Y-42156000D03*
D11*
X86388000Y-39256000D03*
%TD*%
%TO.C,RV1*%
X124447766Y-39302000D03*
D12*
X123197766Y-42202000D03*
D11*
X121947766Y-39302000D03*
%TD*%
D13*
%TO.C,D1*%
X184833500Y-152334000D03*
X184833500Y-150434000D03*
X182958499Y-151384000D03*
%TD*%
D14*
%TO.C,U2*%
X133035519Y-62138819D03*
X133389072Y-61785266D03*
X133742625Y-61431713D03*
X134096179Y-61078159D03*
X134449732Y-60724606D03*
X134803286Y-60371052D03*
X135156839Y-60017499D03*
X135510392Y-59663946D03*
X135863946Y-59310392D03*
X136217499Y-58956839D03*
X136571052Y-58603286D03*
X136924606Y-58249732D03*
X137278159Y-57896179D03*
X137631713Y-57542625D03*
X137985266Y-57189072D03*
X138338819Y-56835519D03*
D15*
X141061181Y-56835519D03*
X141414734Y-57189072D03*
X141768287Y-57542625D03*
X142121841Y-57896179D03*
X142475394Y-58249732D03*
X142828948Y-58603286D03*
X143182501Y-58956839D03*
X143536054Y-59310392D03*
X143889608Y-59663946D03*
X144243161Y-60017499D03*
X144596714Y-60371052D03*
X144950268Y-60724606D03*
X145303821Y-61078159D03*
X145657375Y-61431713D03*
X146010928Y-61785266D03*
X146364481Y-62138819D03*
D14*
X146364481Y-64861181D03*
X146010928Y-65214734D03*
X145657375Y-65568287D03*
X145303821Y-65921841D03*
X144950268Y-66275394D03*
X144596714Y-66628948D03*
X144243161Y-66982501D03*
X143889608Y-67336054D03*
X143536054Y-67689608D03*
X143182501Y-68043161D03*
X142828948Y-68396714D03*
X142475394Y-68750268D03*
X142121841Y-69103821D03*
X141768287Y-69457375D03*
X141414734Y-69810928D03*
X141061181Y-70164481D03*
D15*
X138338819Y-70164481D03*
X137985266Y-69810928D03*
X137631713Y-69457375D03*
X137278159Y-69103821D03*
X136924606Y-68750268D03*
X136571052Y-68396714D03*
X136217499Y-68043161D03*
X135863946Y-67689608D03*
X135510392Y-67336054D03*
X135156839Y-66982501D03*
X134803286Y-66628948D03*
X134449732Y-66275394D03*
X134096179Y-65921841D03*
X133742625Y-65568287D03*
X133389072Y-65214734D03*
X133035519Y-64861181D03*
%TD*%
D13*
%TO.C,Q1*%
X184883500Y-156647000D03*
X184883500Y-154747000D03*
X183008499Y-155697000D03*
%TD*%
D16*
%TO.C,C69*%
X94890054Y-35008337D03*
X96790052Y-35008337D03*
%TD*%
%TO.C,C30*%
X98618000Y-130810000D03*
X100518000Y-130810000D03*
%TD*%
D17*
%TO.C,C36*%
X61976000Y-119059999D03*
X61976000Y-117160001D03*
%TD*%
D18*
%TO.C,R20*%
X186436000Y-117983000D03*
X188261000Y-117983000D03*
%TD*%
D19*
%TO.C,R37*%
X94384500Y-118872000D03*
X92559500Y-118872000D03*
%TD*%
%TO.C,R33*%
X54252500Y-64516000D03*
X52427500Y-64516000D03*
%TD*%
D17*
%TO.C,C2*%
X126873000Y-72450999D03*
X126873000Y-70551001D03*
%TD*%
D19*
%TO.C,R8*%
X167853335Y-107803802D03*
X166028335Y-107803802D03*
%TD*%
D20*
%TO.C,K7*%
X57140005Y-143725900D03*
X53940112Y-143725900D03*
X51740112Y-143725900D03*
X49540114Y-143725900D03*
X49540114Y-150914100D03*
X51740112Y-150914100D03*
X53940112Y-150914100D03*
X57140005Y-150914100D03*
%TD*%
D16*
%TO.C,C57*%
X98618000Y-92710000D03*
X100518000Y-92710000D03*
%TD*%
D21*
%TO.C,C63*%
X140043006Y-45859525D03*
X142993008Y-45859525D03*
%TD*%
D19*
%TO.C,R59*%
X150772500Y-123444000D03*
X148947500Y-123444000D03*
%TD*%
D17*
%TO.C,C55*%
X94267000Y-60385999D03*
X94267000Y-58486001D03*
%TD*%
D16*
%TO.C,C3*%
X135525313Y-73153451D03*
X137425311Y-73153451D03*
%TD*%
D22*
%TO.C,R1*%
X175497000Y-43784500D03*
X175497000Y-45609500D03*
%TD*%
D18*
%TO.C,R4*%
X188063500Y-68580000D03*
X189888500Y-68580000D03*
%TD*%
%TO.C,R38*%
X72747500Y-66548000D03*
X74572500Y-66548000D03*
%TD*%
%TO.C,R72*%
X128627500Y-90932000D03*
X130452500Y-90932000D03*
%TD*%
D16*
%TO.C,C49*%
X140782000Y-110490000D03*
X142682000Y-110490000D03*
%TD*%
D19*
%TO.C,R65*%
X130452500Y-119380000D03*
X128627500Y-119380000D03*
%TD*%
D16*
%TO.C,C7*%
X126018000Y-63618000D03*
X127918000Y-63618000D03*
%TD*%
D18*
%TO.C,R70*%
X148947500Y-117348000D03*
X150772500Y-117348000D03*
%TD*%
%TO.C,R45*%
X72747500Y-87630000D03*
X74572500Y-87630000D03*
%TD*%
%TO.C,R15*%
X186436000Y-107823000D03*
X188261000Y-107823000D03*
%TD*%
D23*
%TO.C,D7*%
X138000002Y-36852999D03*
D24*
X138000002Y-39227999D03*
%TD*%
D18*
%TO.C,R30*%
X52427500Y-62484000D03*
X54252500Y-62484000D03*
%TD*%
D16*
%TO.C,C16*%
X174564001Y-110617000D03*
X176463999Y-110617000D03*
%TD*%
D19*
%TO.C,R84*%
X92352500Y-62484000D03*
X90527500Y-62484000D03*
%TD*%
D10*
%TO.C,C33*%
X61909999Y-132080000D03*
X60010001Y-132080000D03*
%TD*%
D18*
%TO.C,R76*%
X148947500Y-87884000D03*
X150772500Y-87884000D03*
%TD*%
%TO.C,R81*%
X90527500Y-64516000D03*
X92352500Y-64516000D03*
%TD*%
D19*
%TO.C,R71*%
X130452500Y-88900000D03*
X128627500Y-88900000D03*
%TD*%
%TO.C,R58*%
X150772500Y-109220000D03*
X148947500Y-109220000D03*
%TD*%
D25*
%TO.C,K4*%
X56934100Y-118100005D03*
X56934100Y-114900113D03*
X56934100Y-112700112D03*
X56934100Y-110500114D03*
X49745900Y-110500114D03*
X49745900Y-112700112D03*
X49745900Y-114900113D03*
X49745900Y-118100005D03*
%TD*%
D10*
%TO.C,C19*%
X185404386Y-127418422D03*
X183504388Y-127418422D03*
%TD*%
D19*
%TO.C,R74*%
X150772500Y-91948000D03*
X148947500Y-91948000D03*
%TD*%
D21*
%TO.C,C61*%
X140047688Y-42538214D03*
X142997690Y-42538214D03*
%TD*%
D10*
%TO.C,C11*%
X180223602Y-89084646D03*
X178323604Y-89084646D03*
%TD*%
D25*
%TO.C,K3*%
X72605900Y-123199995D03*
X72605900Y-126399887D03*
X72605900Y-128599888D03*
X72605900Y-130799886D03*
X79794100Y-130799886D03*
X79794100Y-128599888D03*
X79794100Y-126399887D03*
X79794100Y-123199995D03*
%TD*%
D18*
%TO.C,R5*%
X188063500Y-64516000D03*
X189888500Y-64516000D03*
%TD*%
D19*
%TO.C,R16*%
X188261000Y-109855000D03*
X186436000Y-109855000D03*
%TD*%
D16*
%TO.C,C15*%
X178628001Y-102997000D03*
X180527999Y-102997000D03*
%TD*%
%TO.C,C38*%
X76774001Y-137160000D03*
X78673999Y-137160000D03*
%TD*%
D26*
%TO.C,U3*%
X175071000Y-90932000D03*
X175071000Y-92202000D03*
X175071000Y-93472000D03*
X175071000Y-94742000D03*
X175071000Y-96012000D03*
X175071000Y-97282000D03*
X175071000Y-98552000D03*
X175071000Y-99822000D03*
X180021000Y-99822000D03*
X180021000Y-98552000D03*
X180021000Y-97282000D03*
X180021000Y-96012000D03*
X180021000Y-94742000D03*
X180021000Y-93472000D03*
X180021000Y-92202000D03*
X180021000Y-90932000D03*
%TD*%
D19*
%TO.C,R66*%
X150772500Y-113284000D03*
X148947500Y-113284000D03*
%TD*%
D27*
%TO.C,C1*%
X126873000Y-67033001D03*
X126873000Y-68932999D03*
%TD*%
D18*
%TO.C,R36*%
X110847500Y-128016000D03*
X112672500Y-128016000D03*
%TD*%
D26*
%TO.C,U13*%
X129605000Y-97155000D03*
X129605000Y-98425000D03*
X129605000Y-99695000D03*
X129605000Y-100965000D03*
X129605000Y-102235000D03*
X129605000Y-103505000D03*
X129605000Y-104775000D03*
X129605000Y-106045000D03*
X134555000Y-106045000D03*
X134555000Y-104775000D03*
X134555000Y-103505000D03*
X134555000Y-102235000D03*
X134555000Y-100965000D03*
X134555000Y-99695000D03*
X134555000Y-98425000D03*
X134555000Y-97155000D03*
%TD*%
D19*
%TO.C,R44*%
X74572500Y-79756000D03*
X72747500Y-79756000D03*
%TD*%
D13*
%TO.C,D4*%
X74597500Y-103185000D03*
X74597500Y-101285000D03*
X72722499Y-102235000D03*
%TD*%
D26*
%TO.C,U10*%
X99125000Y-125095000D03*
X99125000Y-126365000D03*
X99125000Y-127635000D03*
X99125000Y-128905000D03*
X104075000Y-128905000D03*
X104075000Y-127635000D03*
X104075000Y-126365000D03*
X104075000Y-125095000D03*
%TD*%
D19*
%TO.C,R64*%
X130452500Y-117348000D03*
X128627500Y-117348000D03*
%TD*%
D28*
%TO.C,U21*%
X91680000Y-43790000D03*
X93980000Y-43789999D03*
D29*
X93980000Y-37490001D03*
D28*
X96280000Y-43790000D03*
%TD*%
D22*
%TO.C,R46*%
X71882000Y-134977500D03*
X71882000Y-136802500D03*
%TD*%
D19*
%TO.C,R14*%
X188261000Y-111887000D03*
X186436000Y-111887000D03*
%TD*%
D27*
%TO.C,C21*%
X165551002Y-155975814D03*
X165551002Y-157875812D03*
%TD*%
D18*
%TO.C,R69*%
X148947500Y-115316000D03*
X150772500Y-115316000D03*
%TD*%
%TO.C,R60*%
X128627500Y-111252000D03*
X130452500Y-111252000D03*
%TD*%
D30*
%TO.C,D9*%
X167362271Y-34667444D03*
X167362271Y-32792442D03*
%TD*%
D31*
%TO.C,FB1*%
X167162000Y-42076500D03*
X167162000Y-39951500D03*
%TD*%
D19*
%TO.C,R43*%
X112672500Y-123952000D03*
X110847500Y-123952000D03*
%TD*%
D21*
%TO.C,C60*%
X144747688Y-42538213D03*
X147697690Y-42538213D03*
%TD*%
D26*
%TO.C,U7*%
X61025000Y-61595000D03*
X61025000Y-62865000D03*
X61025000Y-64135000D03*
X61025000Y-65405000D03*
X65975000Y-65405000D03*
X65975000Y-64135000D03*
X65975000Y-62865000D03*
X65975000Y-61595000D03*
%TD*%
D25*
%TO.C,K2*%
X72605900Y-110499995D03*
X72605900Y-113699888D03*
X72605900Y-115899888D03*
X72605900Y-118099886D03*
X79794100Y-118099886D03*
X79794100Y-115899888D03*
X79794100Y-113699888D03*
X79794100Y-110499995D03*
%TD*%
D32*
%TO.C,R48*%
X65192500Y-135890000D03*
X59267500Y-135890000D03*
%TD*%
D26*
%TO.C,U16*%
X137225000Y-86995000D03*
X137225000Y-88265000D03*
X137225000Y-89535000D03*
X137225000Y-90805000D03*
X142175000Y-90805000D03*
X142175000Y-89535000D03*
X142175000Y-88265000D03*
X142175000Y-86995000D03*
%TD*%
D18*
%TO.C,R78*%
X90527500Y-70612000D03*
X92352500Y-70612000D03*
%TD*%
D20*
%TO.C,K1*%
X179992585Y-149923372D03*
X176792692Y-149923372D03*
X174592692Y-149923372D03*
X172392694Y-149923372D03*
X172392694Y-157111572D03*
X174592692Y-157111572D03*
X176792692Y-157111572D03*
X179992585Y-157111572D03*
%TD*%
D33*
%TO.C,D2*%
X176342087Y-127354515D03*
X178242087Y-127354515D03*
X177292087Y-125479514D03*
%TD*%
D26*
%TO.C,U5*%
X175071000Y-116205000D03*
X175071000Y-117475000D03*
X175071000Y-118745000D03*
X175071000Y-120015000D03*
X180021000Y-120015000D03*
X180021000Y-118745000D03*
X180021000Y-117475000D03*
X180021000Y-116205000D03*
%TD*%
D10*
%TO.C,C9*%
X167907291Y-118085437D03*
X166007293Y-118085437D03*
%TD*%
D34*
%TO.C,U1*%
X181326656Y-38416686D03*
X180376657Y-38416686D03*
X179426658Y-38416686D03*
X179426658Y-40691686D03*
X180376657Y-40691686D03*
X181326656Y-40691686D03*
%TD*%
D16*
%TO.C,C18*%
X174644424Y-86616518D03*
X176544424Y-86616518D03*
%TD*%
D35*
%TO.C,R51*%
X64008000Y-119022500D03*
X64008000Y-117197500D03*
%TD*%
D10*
%TO.C,C35*%
X61909999Y-124460000D03*
X60010001Y-124460000D03*
%TD*%
D18*
%TO.C,R88*%
X110847500Y-66548000D03*
X112672500Y-66548000D03*
%TD*%
D16*
%TO.C,C48*%
X148910001Y-83820000D03*
X150809999Y-83820000D03*
%TD*%
%TO.C,C56*%
X102682000Y-85090000D03*
X104582000Y-85090000D03*
%TD*%
D19*
%TO.C,R17*%
X188261000Y-115951000D03*
X186436000Y-115951000D03*
%TD*%
D16*
%TO.C,C25*%
X64709000Y-59690000D03*
X66609000Y-59690000D03*
%TD*%
%TO.C,C13*%
X178628000Y-114300000D03*
X180528000Y-114300000D03*
%TD*%
D19*
%TO.C,R73*%
X150772500Y-85852000D03*
X148947500Y-85852000D03*
%TD*%
D16*
%TO.C,C70*%
X163515065Y-35023408D03*
X165415063Y-35023408D03*
%TD*%
D19*
%TO.C,R63*%
X130452500Y-115316000D03*
X128627500Y-115316000D03*
%TD*%
D18*
%TO.C,R75*%
X128627500Y-86868000D03*
X130452500Y-86868000D03*
%TD*%
D20*
%TO.C,K6*%
X69840005Y-143687800D03*
X66640112Y-143687800D03*
X64440112Y-143687800D03*
X62240114Y-143687800D03*
X62240114Y-150876000D03*
X64440112Y-150876000D03*
X66640112Y-150876000D03*
X69840005Y-150876000D03*
%TD*%
D16*
%TO.C,C29*%
X102682000Y-123190000D03*
X104582000Y-123190000D03*
%TD*%
%TO.C,C17*%
X178637000Y-79051000D03*
X180537000Y-79051000D03*
%TD*%
D32*
%TO.C,R55*%
X57572500Y-139700000D03*
X51647500Y-139700000D03*
%TD*%
D16*
%TO.C,C23*%
X90490000Y-105156000D03*
X92390000Y-105156000D03*
%TD*%
D22*
%TO.C,R25*%
X169768623Y-139725674D03*
X169768623Y-141550674D03*
%TD*%
D16*
%TO.C,C45*%
X140782000Y-123190000D03*
X142682000Y-123190000D03*
%TD*%
%TO.C,C37*%
X67630001Y-124460000D03*
X69529999Y-124460000D03*
%TD*%
D10*
%TO.C,C27*%
X74609999Y-77724000D03*
X72710001Y-77724000D03*
%TD*%
D13*
%TO.C,D3*%
X92377500Y-108900000D03*
X92377500Y-107000000D03*
X90502499Y-107950000D03*
%TD*%
D36*
%TO.C,D6*%
X149450923Y-38533453D03*
D37*
X149450923Y-36158453D03*
%TD*%
D19*
%TO.C,R62*%
X130452500Y-113284000D03*
X128627500Y-113284000D03*
%TD*%
D26*
%TO.C,U4*%
X175071000Y-104902000D03*
X175071000Y-106172000D03*
X175071000Y-107442000D03*
X175071000Y-108712000D03*
X180021000Y-108712000D03*
X180021000Y-107442000D03*
X180021000Y-106172000D03*
X180021000Y-104902000D03*
%TD*%
D10*
%TO.C,C64*%
X132099999Y-46260000D03*
X130200001Y-46260000D03*
%TD*%
D19*
%TO.C,R10*%
X167862932Y-111938346D03*
X166037932Y-111938346D03*
%TD*%
D32*
%TO.C,R49*%
X65192500Y-139700000D03*
X59267500Y-139700000D03*
%TD*%
D18*
%TO.C,R39*%
X72747500Y-64516000D03*
X74572500Y-64516000D03*
%TD*%
D26*
%TO.C,U17*%
X99125000Y-86995000D03*
X99125000Y-88265000D03*
X99125000Y-89535000D03*
X99125000Y-90805000D03*
X104075000Y-90805000D03*
X104075000Y-89535000D03*
X104075000Y-88265000D03*
X104075000Y-86995000D03*
%TD*%
D16*
%TO.C,C14*%
X174564000Y-121920000D03*
X176464000Y-121920000D03*
%TD*%
D18*
%TO.C,R2*%
X183347500Y-37509000D03*
X185172500Y-37509000D03*
%TD*%
D22*
%TO.C,R56*%
X71882000Y-138533500D03*
X71882000Y-140358500D03*
%TD*%
D25*
%TO.C,K5*%
X56934100Y-130800005D03*
X56934100Y-127600112D03*
X56934100Y-125400112D03*
X56934100Y-123200114D03*
X49745900Y-123200114D03*
X49745900Y-125400112D03*
X49745900Y-127600112D03*
X49745900Y-130800005D03*
%TD*%
D17*
%TO.C,C54*%
X94234000Y-68513999D03*
X94234000Y-66614001D03*
%TD*%
D19*
%TO.C,R87*%
X112672500Y-60452000D03*
X110847500Y-60452000D03*
%TD*%
D38*
%TO.C,FL1*%
X180564655Y-45296187D03*
X180564655Y-43986187D03*
X180014657Y-43986187D03*
X180014657Y-45296187D03*
%TD*%
D18*
%TO.C,R94*%
X163549280Y-32750692D03*
X165374280Y-32750692D03*
%TD*%
D39*
%TO.C,R26*%
X187303088Y-139499743D03*
X187303088Y-145424743D03*
%TD*%
D16*
%TO.C,C39*%
X128590001Y-109220000D03*
X130489999Y-109220000D03*
%TD*%
D19*
%TO.C,R9*%
X167861976Y-109892233D03*
X166036976Y-109892233D03*
%TD*%
D22*
%TO.C,R57*%
X69850000Y-138533500D03*
X69850000Y-140358500D03*
%TD*%
D26*
%TO.C,U6*%
X175053000Y-80939000D03*
X175053000Y-82209000D03*
X175053000Y-83479000D03*
X175053000Y-84749000D03*
X180003000Y-84749000D03*
X180003000Y-83479000D03*
X180003000Y-82209000D03*
X180003000Y-80939000D03*
%TD*%
D10*
%TO.C,C8*%
X131464948Y-63591146D03*
X129564950Y-63591146D03*
%TD*%
D39*
%TO.C,R22*%
X179179852Y-139499743D03*
X179179852Y-145424743D03*
%TD*%
D19*
%TO.C,R90*%
X128582500Y-35029999D03*
X126757500Y-35029999D03*
%TD*%
D16*
%TO.C,C26*%
X60518000Y-67310000D03*
X62418000Y-67310000D03*
%TD*%
D40*
%TO.C,Y1*%
X123698000Y-67745999D03*
X123698000Y-71446001D03*
%TD*%
D16*
%TO.C,C71*%
X112680001Y-35010000D03*
X114579999Y-35010000D03*
%TD*%
D18*
%TO.C,R42*%
X110847500Y-125984000D03*
X112672500Y-125984000D03*
%TD*%
D27*
%TO.C,C10*%
X169772405Y-112660720D03*
X169772405Y-114560718D03*
%TD*%
D19*
%TO.C,R91*%
X93012499Y-35030000D03*
X91187499Y-35030000D03*
%TD*%
D16*
%TO.C,C67*%
X112320001Y-46360000D03*
X114219999Y-46360000D03*
%TD*%
D28*
%TO.C,U22*%
X160260000Y-43790000D03*
X162560000Y-43789999D03*
D29*
X162560000Y-37490001D03*
D28*
X164860000Y-43790000D03*
%TD*%
D19*
%TO.C,R34*%
X74572500Y-60452000D03*
X72747500Y-60452000D03*
%TD*%
D41*
%TO.C,J6*%
X183776656Y-35350187D03*
X182976656Y-35350187D03*
D42*
X181826656Y-35350186D03*
X180826656Y-35350187D03*
X180326656Y-35350187D03*
X179326656Y-35350186D03*
D41*
X178176656Y-35350187D03*
X177376656Y-35350187D03*
X177376656Y-35350187D03*
X178176656Y-35350187D03*
D42*
X178826656Y-35350187D03*
X179826656Y-35350187D03*
X181326656Y-35350187D03*
X182326656Y-35350187D03*
D41*
X182976656Y-35350187D03*
X183776656Y-35350187D03*
D43*
X185686656Y-34775187D03*
X185686656Y-30845187D03*
X175466656Y-34775187D03*
X175466656Y-30845187D03*
%TD*%
D26*
%TO.C,U11*%
X61025000Y-99695000D03*
X61025000Y-100965000D03*
X61025000Y-102235000D03*
X61025000Y-103505000D03*
X65975000Y-103505000D03*
X65975000Y-102235000D03*
X65975000Y-100965000D03*
X65975000Y-99695000D03*
%TD*%
D16*
%TO.C,C32*%
X60518000Y-105410000D03*
X62418000Y-105410000D03*
%TD*%
%TO.C,C58*%
X110810000Y-62484000D03*
X112710000Y-62484000D03*
%TD*%
D26*
%TO.C,U12*%
X137225000Y-125095000D03*
X137225000Y-126365000D03*
X137225000Y-127635000D03*
X137225000Y-128905000D03*
X142175000Y-128905000D03*
X142175000Y-127635000D03*
X142175000Y-126365000D03*
X142175000Y-125095000D03*
%TD*%
D19*
%TO.C,R83*%
X92352500Y-58420000D03*
X90527500Y-58420000D03*
%TD*%
D22*
%TO.C,R29*%
X169768623Y-143281674D03*
X169768623Y-145106674D03*
%TD*%
D19*
%TO.C,R35*%
X112672500Y-130048000D03*
X110847500Y-130048000D03*
%TD*%
D26*
%TO.C,U19*%
X99125000Y-61595000D03*
X99125000Y-62865000D03*
X99125000Y-64135000D03*
X99125000Y-65405000D03*
X104075000Y-65405000D03*
X104075000Y-64135000D03*
X104075000Y-62865000D03*
X104075000Y-61595000D03*
%TD*%
D27*
%TO.C,C34*%
X67691000Y-134940001D03*
X67691000Y-136839999D03*
%TD*%
D35*
%TO.C,R21*%
X170180000Y-82700500D03*
X170180000Y-80875500D03*
%TD*%
D22*
%TO.C,R24*%
X171887623Y-139725675D03*
X171887623Y-141550675D03*
%TD*%
D18*
%TO.C,R11*%
X166044792Y-116053437D03*
X167869792Y-116053437D03*
%TD*%
D16*
%TO.C,C20*%
X169090238Y-127398137D03*
X170990236Y-127398137D03*
%TD*%
D18*
%TO.C,R68*%
X148947500Y-121412000D03*
X150772500Y-121412000D03*
%TD*%
D26*
%TO.C,U9*%
X61025000Y-46355000D03*
X61025000Y-47625000D03*
X61025000Y-48895000D03*
X61025000Y-50165000D03*
X61025000Y-51435000D03*
X61025000Y-52705000D03*
X61025000Y-53975000D03*
X61025000Y-55245000D03*
X65975000Y-55245000D03*
X65975000Y-53975000D03*
X65975000Y-52705000D03*
X65975000Y-51435000D03*
X65975000Y-50165000D03*
X65975000Y-48895000D03*
X65975000Y-47625000D03*
X65975000Y-46355000D03*
%TD*%
D18*
%TO.C,R19*%
X179951320Y-127409771D03*
X181776320Y-127409771D03*
%TD*%
D19*
%TO.C,R80*%
X92352500Y-72644000D03*
X90527500Y-72644000D03*
%TD*%
%TO.C,R93*%
X110524002Y-35008016D03*
X108699002Y-35008016D03*
%TD*%
D16*
%TO.C,C5*%
X148158738Y-63476814D03*
X150058736Y-63476814D03*
%TD*%
D44*
%TO.C,U8*%
X65975000Y-42545000D03*
X65975000Y-41275000D03*
X65975000Y-40005000D03*
X65975000Y-38735000D03*
X65975000Y-37465000D03*
X65975000Y-36195000D03*
X65975000Y-34925000D03*
X65975000Y-33655000D03*
X61025000Y-33655000D03*
X61025000Y-34925000D03*
X61025000Y-36195000D03*
X61025000Y-37465000D03*
X61025000Y-38735000D03*
X61025000Y-40005000D03*
X61025000Y-41275000D03*
X61025000Y-42545000D03*
%TD*%
D19*
%TO.C,R7*%
X124399069Y-63627654D03*
X122574069Y-63627654D03*
%TD*%
D18*
%TO.C,R13*%
X186436000Y-113919000D03*
X188261000Y-113919000D03*
%TD*%
D16*
%TO.C,C31*%
X64582000Y-97790000D03*
X66482000Y-97790000D03*
%TD*%
D18*
%TO.C,R18*%
X172839587Y-127370014D03*
X174664587Y-127370014D03*
%TD*%
D26*
%TO.C,RN1*%
X175065743Y-59690000D03*
X175065743Y-60960000D03*
X175065743Y-62230000D03*
X175065743Y-63500000D03*
X175065743Y-64770000D03*
X175065743Y-66040000D03*
X175065743Y-67310000D03*
X175065743Y-68580000D03*
X180015743Y-68580000D03*
X180015743Y-67310000D03*
X180015743Y-66040000D03*
X180015743Y-64770000D03*
X180015743Y-63500000D03*
X180015743Y-62230000D03*
X180015743Y-60960000D03*
X180015743Y-59690000D03*
%TD*%
D27*
%TO.C,C40*%
X147066000Y-113350001D03*
X147066000Y-115249999D03*
%TD*%
D21*
%TO.C,C62*%
X144743007Y-45859525D03*
X147693009Y-45859525D03*
%TD*%
D16*
%TO.C,C47*%
X148910001Y-93980000D03*
X150809999Y-93980000D03*
%TD*%
D17*
%TO.C,C53*%
X94267000Y-64449999D03*
X94267000Y-62550001D03*
%TD*%
D45*
%TO.C,D5*%
X72722500Y-81600000D03*
X72722500Y-83500000D03*
X74597500Y-82550000D03*
%TD*%
D16*
%TO.C,C22*%
X90490000Y-112776000D03*
X92390000Y-112776000D03*
%TD*%
%TO.C,C50*%
X136718001Y-118110000D03*
X138617999Y-118110000D03*
%TD*%
D18*
%TO.C,R52*%
X67667500Y-126492000D03*
X69492500Y-126492000D03*
%TD*%
D16*
%TO.C,C52*%
X98618000Y-67310000D03*
X100518000Y-67310000D03*
%TD*%
D22*
%TO.C,R47*%
X69850000Y-134977500D03*
X69850000Y-136802500D03*
%TD*%
D16*
%TO.C,C43*%
X140782001Y-85090000D03*
X142681999Y-85090000D03*
%TD*%
D10*
%TO.C,C59*%
X112709999Y-64516000D03*
X110810001Y-64516000D03*
%TD*%
D22*
%TO.C,R28*%
X171887623Y-143281674D03*
X171887623Y-145106674D03*
%TD*%
D16*
%TO.C,C44*%
X136718001Y-92710000D03*
X138617999Y-92710000D03*
%TD*%
D19*
%TO.C,R77*%
X150772500Y-89916000D03*
X148947500Y-89916000D03*
%TD*%
D18*
%TO.C,R79*%
X90560500Y-60452000D03*
X92385500Y-60452000D03*
%TD*%
D32*
%TO.C,R54*%
X57572500Y-135890000D03*
X51647500Y-135890000D03*
%TD*%
D18*
%TO.C,R41*%
X72747500Y-68580000D03*
X74572500Y-68580000D03*
%TD*%
D17*
%TO.C,C41*%
X147066000Y-119313999D03*
X147066000Y-117414001D03*
%TD*%
%TO.C,C42*%
X147066000Y-123377999D03*
X147066000Y-121478001D03*
%TD*%
D19*
%TO.C,R92*%
X161467500Y-35030000D03*
X159642500Y-35030000D03*
%TD*%
D39*
%TO.C,R27*%
X183171087Y-139499743D03*
X183171087Y-145424743D03*
%TD*%
D16*
%TO.C,C68*%
X130460001Y-35010000D03*
X132359999Y-35010000D03*
%TD*%
D18*
%TO.C,R31*%
X90527500Y-110744000D03*
X92352500Y-110744000D03*
%TD*%
D10*
%TO.C,C4*%
X142427999Y-54729000D03*
X140528001Y-54729000D03*
%TD*%
%TO.C,C12*%
X176678775Y-89082033D03*
X174778777Y-89082033D03*
%TD*%
D19*
%TO.C,R89*%
X112672500Y-68580000D03*
X110847500Y-68580000D03*
%TD*%
%TO.C,R50*%
X61872500Y-126492000D03*
X60047500Y-126492000D03*
%TD*%
D28*
%TO.C,U23*%
X109460000Y-43790000D03*
X111760000Y-43789999D03*
D29*
X111760000Y-37490001D03*
D28*
X114060000Y-43790000D03*
%TD*%
D19*
%TO.C,R67*%
X150772500Y-119380000D03*
X148947500Y-119380000D03*
%TD*%
D36*
%TO.C,D8*%
X99129999Y-41240000D03*
D37*
X99129999Y-38865000D03*
%TD*%
D19*
%TO.C,R61*%
X150772500Y-111252000D03*
X148947500Y-111252000D03*
%TD*%
D18*
%TO.C,R86*%
X110847500Y-58420000D03*
X112672500Y-58420000D03*
%TD*%
D16*
%TO.C,C46*%
X136718000Y-130810000D03*
X138618000Y-130810000D03*
%TD*%
D19*
%TO.C,R3*%
X177425500Y-37538000D03*
X175600500Y-37538000D03*
%TD*%
D10*
%TO.C,C28*%
X74609999Y-85344000D03*
X72710001Y-85344000D03*
%TD*%
%TO.C,C65*%
X96619998Y-46260000D03*
X94720000Y-46260000D03*
%TD*%
D18*
%TO.C,R6*%
X188063500Y-66548000D03*
X189888500Y-66548000D03*
%TD*%
D19*
%TO.C,R85*%
X92385500Y-66548000D03*
X90560500Y-66548000D03*
%TD*%
D26*
%TO.C,U18*%
X99125000Y-71755000D03*
X99125000Y-73025000D03*
X99125000Y-74295000D03*
X99125000Y-75565000D03*
X99125000Y-76835000D03*
X99125000Y-78105000D03*
X99125000Y-79375000D03*
X99125000Y-80645000D03*
X104075000Y-80645000D03*
X104075000Y-79375000D03*
X104075000Y-78105000D03*
X104075000Y-76835000D03*
X104075000Y-75565000D03*
X104075000Y-74295000D03*
X104075000Y-73025000D03*
X104075000Y-71755000D03*
%TD*%
D18*
%TO.C,R12*%
X166037490Y-113992914D03*
X167862490Y-113992914D03*
%TD*%
%TO.C,R40*%
X72747500Y-62484000D03*
X74572500Y-62484000D03*
%TD*%
%TO.C,R53*%
X76811500Y-135128000D03*
X78636500Y-135128000D03*
%TD*%
D26*
%TO.C,U14*%
X137225000Y-112395000D03*
X137225000Y-113665000D03*
X137225000Y-114935000D03*
X137225000Y-116205000D03*
X142175000Y-116205000D03*
X142175000Y-114935000D03*
X142175000Y-113665000D03*
X142175000Y-112395000D03*
%TD*%
D39*
%TO.C,R23*%
X175027087Y-139499743D03*
X175027087Y-145424743D03*
%TD*%
D16*
%TO.C,C51*%
X102682000Y-59690000D03*
X104582000Y-59690000D03*
%TD*%
D10*
%TO.C,C66*%
X165124999Y-46310000D03*
X163225001Y-46310000D03*
%TD*%
D28*
%TO.C,U20*%
X127240000Y-43790000D03*
X129540000Y-43789999D03*
D29*
X129540000Y-37490001D03*
D28*
X131840000Y-43790000D03*
%TD*%
D10*
%TO.C,C24*%
X74609999Y-58420000D03*
X72710001Y-58420000D03*
%TD*%
D19*
%TO.C,R32*%
X92352500Y-103124000D03*
X90527500Y-103124000D03*
%TD*%
D18*
%TO.C,R82*%
X90527500Y-68580000D03*
X92352500Y-68580000D03*
%TD*%
D26*
%TO.C,U15*%
X144845000Y-97155000D03*
X144845000Y-98425000D03*
X144845000Y-99695000D03*
X144845000Y-100965000D03*
X144845000Y-102235000D03*
X144845000Y-103505000D03*
X144845000Y-104775000D03*
X144845000Y-106045000D03*
X149795000Y-106045000D03*
X149795000Y-104775000D03*
X149795000Y-103505000D03*
X149795000Y-102235000D03*
X149795000Y-100965000D03*
X149795000Y-99695000D03*
X149795000Y-98425000D03*
X149795000Y-97155000D03*
%TD*%
M02*
